<?xml version="1.0" standalone="no"?>
<!DOCTYPE svg PUBLIC "-//W3C//DTD SVG 20010904//EN"
 "http://www.w3.org/TR/2001/REC-SVG-20010904/DTD/svg10.dtd">
<svg version="1.0" xmlns="http://www.w3.org/2000/svg"
 width="1080.000000pt" height="1080.000000pt" viewBox="0 0 1080.000000 1080.000000"
 preserveAspectRatio="xMidYMid meet">

<g transform="translate(0.000000,1080.000000) scale(0.100000,-0.100000)"
fill="#000000" stroke="none">
<path d="M2150 7217 c0 -49 -9 -57 -61 -57 -23 0 -30 -5 -34 -27 -10 -46 -20
-58 -54 -61 -33 -3 -35 -6 -45 -55 -5 -22 -15 -29 -51 -39 -42 -11 -45 -14
-45 -45 0 -27 -5 -35 -26 -43 -14 -6 -36 -10 -50 -10 -20 0 -24 -5 -24 -29 0
-34 -18 -51 -63 -60 -24 -5 -33 -13 -35 -31 -5 -34 -19 -49 -55 -58 -19 -5
-37 -20 -47 -37 -9 -17 -33 -39 -54 -50 -23 -12 -43 -33 -51 -52 -9 -21 -23
-35 -40 -39 -15 -4 -36 -22 -50 -45 -14 -20 -37 -44 -52 -51 -15 -7 -34 -27
-42 -44 -8 -18 -28 -38 -48 -48 -18 -9 -43 -32 -54 -51 -12 -19 -32 -38 -46
-41 -13 -4 -35 -24 -49 -46 -14 -21 -33 -42 -42 -45 -9 -3 -39 -28 -67 -54
-45 -43 -269 -266 -298 -297 -23 -24 -216 -208 -295 -281 l-80 -73 20 -49 c14
-32 32 -55 53 -68 22 -12 35 -30 40 -50 5 -22 18 -37 46 -53 21 -12 39 -26 39
-31 0 -11 168 -177 179 -177 4 0 14 -12 22 -26 8 -15 30 -37 51 -50 20 -13 43
-36 50 -51 7 -15 23 -32 34 -38 34 -17 55 -37 65 -62 4 -12 24 -29 44 -37 24
-11 39 -25 47 -46 6 -20 23 -37 46 -48 20 -9 43 -30 52 -47 9 -16 32 -38 52
-47 23 -11 40 -28 46 -47 7 -20 22 -35 47 -45 24 -10 40 -26 50 -48 9 -23 24
-37 49 -46 25 -9 38 -22 47 -47 9 -23 21 -36 38 -40 33 -8 61 -33 61 -55 0
-21 16 -35 51 -44 19 -4 31 -17 43 -46 11 -28 22 -40 36 -40 27 0 70 -43 70
-70 0 -14 6 -20 23 -20 33 0 65 -26 72 -60 5 -22 14 -32 33 -36 56 -12 54 -9
66 -66 6 -25 11 -28 45 -28 42 0 51 -11 51 -61 0 -25 4 -29 29 -29 39 0 61 -9
61 -26 0 -7 18 -23 39 -34 22 -11 46 -28 53 -39 13 -19 14 -19 55 0 39 18 99
25 374 48 95 7 113 17 134 68 13 31 16 32 42 22 43 -16 107 -13 173 10 67 23
103 26 147 11 45 -16 148 11 187 49 l32 31 148 0 149 0 45 50 c41 45 49 50 88
50 23 0 65 5 93 12 38 8 63 9 99 0 36 -8 60 -7 104 3 65 15 76 21 101 52 18
22 24 23 166 23 l148 0 6 120 c7 126 3 146 -36 193 -23 27 -30 29 -137 38
-121 10 -154 22 -170 64 -11 28 -28 32 -185 39 -128 6 -173 17 -215 52 -39 33
-108 54 -179 55 -31 0 -91 6 -133 13 -69 11 -81 16 -118 54 -28 27 -51 42 -69
42 -243 5 -318 17 -340 59 -16 30 -67 43 -191 47 -63 3 -139 10 -168 16 -45
10 -55 16 -68 44 -9 18 -26 37 -37 41 -12 4 -85 7 -162 8 -135 1 -200 9 -190
24 2 4 -4 21 -15 38 -15 26 -27 32 -77 41 -32 5 -108 8 -169 5 -62 -3 -124 -3
-138 1 -25 6 -25 8 -11 29 9 14 37 29 75 40 33 10 60 22 60 28 0 5 17 17 37
26 26 12 40 27 46 48 5 17 18 50 29 75 12 25 23 75 26 111 4 60 2 68 -22 94
-23 25 -27 36 -24 84 3 48 7 57 28 68 45 22 60 51 60 113 0 40 5 62 16 71 29
24 46 70 40 105 -5 26 -13 35 -41 44 -32 11 -35 15 -34 48 2 63 13 96 35 107
50 25 54 34 54 116 0 77 1 79 24 79 36 0 44 48 18 98 -17 32 -19 49 -13 103 4
35 14 78 23 94 12 24 38 118 38 141 0 3 -12 16 -26 29 -37 35 -36 86 4 123 25
24 31 38 37 99 5 57 12 76 31 94 19 18 24 33 24 70 0 26 -4 51 -10 54 -6 4
-10 -11 -10 -38z m-156 -803 c10 -4 16 -18 16 -35 0 -24 -4 -29 -24 -29 -17 0
-26 7 -30 25 -10 40 3 52 38 39z m-109 -484 c3 -5 -1 -10 -9 -10 -9 0 -16 5
-16 10 0 6 4 10 9 10 6 0 13 -4 16 -10z m-97 -481 c-2 -6 -8 -10 -13 -10 -5 0
-11 4 -13 10 -2 6 4 11 13 11 9 0 15 -5 13 -11z"/>
<path d="M2241 6974 c0 -11 3 -14 6 -6 3 7 2 16 -1 19 -3 4 -6 -2 -5 -13z"/>
<path d="M2044 6129 c-9 -14 -34 -112 -30 -116 1 -2 13 -4 27 -5 22 -3 24 0
27 49 3 59 -9 95 -24 72z"/>
</g>
</svg>
